# Blender v2.93.6 OBJ File: ''
# www.blender.org
mtllib boostthing.mtl
o Cylinder
v 0.000000 -1.000000 -1.000000
v 0.000000 0.049894 -0.890496
v 0.866025 -1.000000 -0.500000
v 0.771192 0.049894 -0.445248
v 0.866025 -1.000000 0.500000
v 0.771192 0.049894 0.445248
v -0.000000 -1.000000 1.000000
v -0.000000 0.049894 0.890496
v -0.866025 -1.000000 0.500000
v -0.771192 0.049894 0.445248
v -0.866025 -1.000000 -0.500000
v -0.771192 0.049894 -0.445248
v 0.528944 0.843419 -0.305386
v -0.000000 0.843419 -0.610771
v 0.528944 0.843419 0.305386
v -0.000000 0.843419 0.610771
v -0.528944 0.843419 0.305386
v -0.528944 0.843419 -0.305386
v 0.155709 1.399221 -0.089899
v 0.000000 1.399221 -0.179797
v 0.155709 1.399221 0.089899
v -0.000000 1.399221 0.179797
v -0.155709 1.399221 0.089899
v -0.155709 1.399220 -0.089899
v 0.000000 1.525795 0.000000
vt 1.000000 0.500000
vt 1.000000 1.000000
vt 0.833333 1.000000
vt 0.833333 0.500000
vt 0.666667 1.000000
vt 0.666667 0.500000
vt 0.500000 1.000000
vt 0.500000 0.500000
vt 0.333333 1.000000
vt 0.333333 0.500000
vt 0.500000 1.000000
vt 0.333333 1.000000
vt 0.166667 1.000000
vt 0.166667 0.500000
vt -0.000000 1.000000
vt -0.000000 0.500000
vt 0.750000 0.490000
vt 0.957846 0.370000
vt 0.957846 0.130000
vt 0.750000 0.010000
vt 0.542154 0.130000
vt 0.542154 0.370000
vt 0.166667 1.000000
vt 0.333333 1.000000
vt 0.166667 1.000000
vt 0.833333 1.000000
vt 0.666667 1.000000
vt 1.000000 1.000000
vt -0.000000 1.000000
vt 0.457846 0.370000
vt 0.250000 0.490000
vt 0.042154 0.370000
vt 0.042154 0.130000
vt 0.250000 0.010000
vt 0.457846 0.130000
vt 0.666667 1.000000
vt 0.500000 1.000000
vt 1.000000 1.000000
vt 0.833333 1.000000
vt -0.000000 1.000000
vt 0.000000 0.000000
vt 0.000000 0.000000
vt 0.000000 0.000000
vn 0.4980 0.0900 -0.8625
vn 0.9959 0.0900 0.0000
vn 0.4980 0.0900 0.8625
vn -0.4980 0.0900 0.8625
vn -0.4782 0.2920 0.8283
vn -0.9959 0.0900 0.0000
vn -0.4980 0.0900 -0.8625
vn 0.0000 -1.0000 0.0000
vn -0.8302 0.5575 -0.0000
vn 0.9564 0.2920 0.0000
vn -0.9564 0.2920 0.0000
vn 0.4782 0.2920 -0.8283
vn 0.4782 0.2920 0.8283
vn -0.4782 0.2920 -0.8283
vn -0.0000 1.0000 -0.0000
vn 0.4151 0.5575 0.7190
vn 0.4151 0.5575 -0.7190
vn -0.4151 0.5575 -0.7190
vn -0.4151 0.5575 0.7190
vn 0.8302 0.5575 0.0000
vn 0.6308 -0.7760 0.0000
vn 0.3154 -0.7760 -0.5463
vn -0.3154 -0.7760 -0.5463
vn 0.6308 0.7760 0.0000
vn 0.3154 0.7760 -0.5463
vn -0.3154 0.7760 -0.5463
usemtl Material.001
s off
f 1/1/1 2/2/1 4/3/1 3/4/1
f 3/4/2 4/3/2 6/5/2 5/6/2
f 5/6/3 6/5/3 8/7/3 7/8/3
f 7/8/4 8/7/4 10/9/4 9/10/4
f 10/9/5 8/7/5 16/11/5 17/12/5
f 9/10/6 10/9/6 12/13/6 11/14/6
f 11/14/7 12/13/7 2/15/7 1/16/7
f 1/17/8 3/18/8 5/19/8 7/20/8 9/21/8 11/22/8
f 18/23/9 17/12/9 23/24/9 24/25/9
f 6/5/10 4/3/10 13/26/10 15/27/10
f 12/13/11 10/9/11 17/12/11 18/23/11
f 4/3/12 2/2/12 14/28/12 13/26/12
f 8/7/13 6/5/13 15/27/13 16/11/13
f 2/15/14 12/13/14 18/23/14 14/29/14
f 19/30/15 20/31/15 24/32/15 23/33/15 22/34/15 21/35/15
f 16/11/16 15/27/16 21/36/16 22/37/16
f 13/26/17 14/28/17 20/38/17 19/39/17
f 14/29/18 18/23/18 24/25/18 20/40/18
f 17/12/19 16/11/19 22/37/19 23/24/19
f 15/27/20 13/26/20 19/39/20 21/36/20
f 25/41/21 23/24/21 24/25/21
f 23/24/22 25/41/22 22/34/22
f 22/34/23 25/41/23 21/35/23
f 19/30/24 25/41/24 21/35/24
f 25/41/25 19/30/25 20/31/25
f 25/41/26 20/42/26 24/43/26
